<svg width="1080" height="1080" viewBox="0 0 1080 1080" fill="none" xmlns="http://www.w3.org/2000/svg">
<path d="M818.886 585.419L811.665 591.297L784.128 613.671L751.312 702.073C747.126 713.342 739.777 723.015 730.032 730.058L538.38 868.563L346.728 730.058C336.984 723.015 329.634 713.342 325.448 702.073L292.632 613.66L221.569 555.92L281.841 718.301C289.248 738.242 302.272 755.354 319.494 767.81L538.38 926L757.266 767.81C774.5 755.354 787.512 738.242 794.92 718.289L855.191 555.92L818.886 585.419Z" fill="url(#paint0_linear_41_3158)"/>
<path d="M672.459 350.173L898.065 251.15L978.714 215.098L1000.98 155L653.801 307.371C607.185 327.831 581.241 378.867 592.124 428.746L633.06 616.421L539.782 601.788L446.492 616.421L487.428 428.746C498.311 378.867 472.367 327.831 425.751 307.371L78.5837 155L100.605 214.467L174.667 248.16L174.806 248.218L407.093 350.173C433.433 361.723 448.099 390.569 441.953 418.749L401.82 602.734L275.219 499.635L247.529 477.084L174.969 281.129L116.191 256.557L176.424 419.17L206.105 499.331L207.781 503.839L212.11 508.394L279.444 563.237L361.164 629.805L403.031 663.906L403.066 663.929L432.269 681.576L539.77 746.567L647.26 681.587L676.463 663.929H676.474L718.364 629.805H718.376L800.108 563.237L871.224 505.311L903.128 419.158L962.756 258.169L902.976 285.485L832.011 477.072L677.72 602.734L637.599 418.749C631.442 390.569 646.107 361.723 672.447 350.173H672.459ZM539.782 692.028L483.343 657.915L539.782 649.063L596.209 657.915L539.782 692.028Z" fill="url(#paint1_linear_41_3158)"/>
<defs>
<linearGradient id="paint0_linear_41_3158" x1="538.38" y1="555.92" x2="538.38" y2="926" gradientUnits="userSpaceOnUse">
<stop stop-color="#344BFD"/>
<stop offset="1" stop-color="#0885FB"/>
</linearGradient>
<linearGradient id="paint1_linear_41_3158" x1="539.782" y1="155" x2="539.782" y2="1035.34" gradientUnits="userSpaceOnUse">
<stop stop-color="#A65AF9"/>
<stop offset="1" stop-color="#4B27AD"/>
</linearGradient>
</defs>
</svg>
